<svg width="267" height="94" viewBox="0 0 267 94" fill="none" xmlns="http://www.w3.org/2000/svg">
<path d="M36.9626 70.6306L33.1531 66.7181C35.2123 63.7322 36.4479 59.8198 36.4479 55.4954V18.6358C36.4479 7.82496 29.0347 0 18.2239 0C7.51606 0 0 7.82496 0 18.6358V55.4954C0 66.3062 7.51606 74.1312 18.2239 74.1312C21.8275 74.1312 25.0193 73.3075 27.7992 71.6602L31.8146 75.7786C32.4324 76.3963 33.1531 76.3963 33.7709 75.7786L36.9626 72.5868C37.5804 72.072 37.5804 71.3513 36.9626 70.6306ZM18.2239 65.4826C12.9729 65.4826 9.47231 61.5701 9.47231 55.9073V18.2239C9.47231 12.5611 12.9729 8.64864 18.2239 8.64864C23.4749 8.64864 27.0785 12.5611 27.0785 18.2239V55.9073C27.0785 57.3487 26.8726 58.6872 26.3578 59.9227L23.4749 56.9369C22.8571 56.3191 22.0334 56.3191 21.5186 56.9369L18.2239 60.1286C17.6061 60.6434 17.6061 61.4671 18.2239 62.0849L21.1068 65.0707C20.2831 65.2766 19.2535 65.4826 18.2239 65.4826Z" fill="#F5F6FA"/>
<path d="M48.1048 21.6216C47.1782 21.6216 46.6634 22.1364 46.6634 23.0631V57.4517C46.6634 67.2329 53.1499 74.2342 62.7251 74.2342C72.3004 74.2342 78.7869 67.2329 78.7869 57.4517V23.0631C78.7869 22.1364 78.2721 21.6216 77.3455 21.6216H71.3738C70.4471 21.6216 69.9324 22.1364 69.9324 23.0631V57.7606C69.9324 62.5997 67.2554 65.8944 62.7251 65.8944C58.1949 65.8944 55.5179 62.5997 55.5179 57.7606V23.0631C55.5179 22.1364 55.0031 21.6216 54.0765 21.6216H48.1048Z" fill="#DBE7FB"/>
<path d="M94.144 15.1351C97.1299 15.1351 99.4979 12.6641 99.4979 9.88416C99.4979 6.79536 97.1299 4.53024 94.144 4.53024C91.0552 4.53024 88.8931 6.79536 88.8931 9.88416C88.8931 12.87 91.0552 15.1351 94.144 15.1351ZM91.1582 73.1016H97.1299C98.0565 73.1016 98.5713 72.5868 98.5713 71.6602V22.9601C98.5713 22.1364 98.0565 21.6216 97.1299 21.6216H91.1582C90.2316 21.6216 89.7167 22.1364 89.7167 22.9601V71.6602C89.7167 72.5868 90.2316 73.1016 91.1582 73.1016Z" fill="#C1D7FC"/>
<path d="M117.342 64.7618L136.287 31.8147C137.213 30.2703 137.316 28.9318 137.316 27.5933V25.0193C137.316 22.8571 135.978 21.6216 133.816 21.6216H109.62C108.797 21.6216 108.179 22.1364 108.179 22.9601V28.5199C108.179 29.4466 108.797 29.9614 109.62 29.9614H127.535L108.282 63.3204C107.458 64.7619 107.252 66.1003 107.252 67.5418V69.498C107.252 71.7631 108.591 73.1016 110.753 73.1016H135.875C136.802 73.1016 137.316 72.5868 137.316 71.6602V66.2033C137.316 65.2767 136.802 64.7618 135.875 64.7618H117.342Z" fill="#A7C8FD"/>
<path d="M147.259 73.1016H153.848C154.672 73.1016 155.186 72.5868 155.186 71.6602V48.803H171.866V71.6602C171.866 72.5868 172.484 73.1016 173.307 73.1016H179.794C180.721 73.1016 181.235 72.5868 181.235 71.6602V18.9446C181.235 7.61904 174.131 0 163.526 0C152.921 0 145.92 7.61904 145.92 18.9446V71.6602C145.92 72.5868 146.435 73.1016 147.259 73.1016ZM155.186 40.2574V18.5328C155.186 12.3552 158.275 8.7516 163.526 8.7516C168.88 8.7516 171.866 12.3552 171.866 18.5328V40.2574H155.186Z" fill="#8CB9FD"/>
<path d="M208.126 20.489C198.241 20.489 191.652 27.4903 191.652 37.2715V92.3551C191.652 93.1788 192.167 93.6936 193.093 93.6936H199.168C199.992 93.6936 200.507 93.1788 200.507 92.3551V70.7335C202.875 72.8957 205.86 74.2342 209.567 74.2342C217.907 74.2342 224.496 67.2329 224.496 57.4517V37.2715C224.496 27.4903 217.907 20.489 208.126 20.489ZM215.642 57.7606C215.642 62.5997 212.862 65.7914 208.126 65.7914C203.389 65.7914 200.507 62.5997 200.507 57.7606V36.9626C200.507 32.1235 203.389 28.9318 208.126 28.9318C212.862 28.9318 215.642 32.1235 215.642 36.9626V57.7606Z" fill="#72A9FE"/>
<path d="M249.752 20.489C239.868 20.489 233.278 27.4903 233.278 37.2715V92.3551C233.278 93.1788 233.793 93.6936 234.72 93.6936H240.794C241.618 93.6936 242.133 93.1788 242.133 92.3551V70.7335C244.501 72.8957 247.487 74.2342 251.193 74.2342C259.533 74.2342 266.123 67.2329 266.123 57.4517V37.2715C266.123 27.4903 259.533 20.489 249.752 20.489ZM257.268 57.7606C257.268 62.5997 254.488 65.7914 249.752 65.7914C245.016 65.7914 242.133 62.5997 242.133 57.7606V36.9626C242.133 32.1235 245.016 28.9318 249.752 28.9318C254.488 28.9318 257.268 32.1235 257.268 36.9626V57.7606Z" fill="#589AFF"/>
</svg>
