<svg width="117" height="111" viewBox="0 0 117 111" fill="none" xmlns="http://www.w3.org/2000/svg">
<path d="M53.8456 102.831L48.2961 97.1344C51.2959 92.7873 53.0957 87.0911 53.0957 80.7954V27.1317C53.0957 11.3923 42.2966 0 26.5478 0C10.9491 0 0 11.3923 0 27.1317V80.7954C0 96.5348 10.9491 107.927 26.5478 107.927C31.7974 107.927 36.4471 106.728 40.4967 104.33L46.3462 110.325C47.2462 111.225 48.2961 111.225 49.196 110.325L53.8456 105.679C54.7456 104.929 54.7456 103.88 53.8456 102.831ZM26.5478 95.3356C18.8985 95.3356 13.7989 89.6394 13.7989 81.395V26.5321C13.7989 18.2876 18.8985 12.5915 26.5478 12.5915C34.1972 12.5915 39.4468 18.2876 39.4468 26.5321V81.395C39.4468 83.4936 39.1469 85.4423 38.3969 87.2411L34.1972 82.894C33.2973 81.9946 32.0974 81.9946 31.3475 82.894L26.5478 87.5408C25.6479 88.2903 25.6479 89.4895 26.5478 90.3889L30.7475 94.736C29.5476 95.0358 28.0477 95.3356 26.5478 95.3356Z" fill="#F5F6FA"/>
<path d="M67.5039 106.428H77.1032C78.3031 106.428 79.053 105.679 79.053 104.33V71.052H103.351V104.33C103.351 105.679 104.251 106.428 105.451 106.428H114.9C116.25 106.428 117 105.679 117 104.33V27.5814C117 11.0925 106.651 0 91.2021 0C75.7533 0 65.5541 11.0925 65.5541 27.5814V104.33C65.5541 105.679 66.304 106.428 67.5039 106.428ZM79.053 58.6104V26.9818C79.053 17.9878 83.5527 12.7414 91.2021 12.7414C99.0015 12.7414 103.351 17.9878 103.351 26.9818V58.6104H79.053Z" fill="#8CB9FD"/>
</svg>
